<?xml version="1.0" encoding="UTF-8"?><svg xmlns="http://www.w3.org/2000/svg" xmlns:xlink="http://www.w3.org/1999/xlink" fill-opacity="1" color-rendering="auto" color-interpolation="auto" text-rendering="auto" stroke="black" stroke-linecap="square" width="835" stroke-miterlimit="10" shape-rendering="auto" stroke-opacity="1" fill="black" stroke-dasharray="none" font-weight="normal" stroke-width="1" height="664" font-family="'Dialog'" font-style="normal" stroke-linejoin="miter" font-size="12px" stroke-dashoffset="0" image-rendering="auto">
  <!--Generated by ySVG 2.5-->
  <defs id="genericDefs"/>
  <g>
    <g text-rendering="geometricPrecision" shape-rendering="geometricPrecision" transform="matrix(0.8565,0,0,0.8565,662.9934,40.9775)">
      <g clip-path="url(#clipPath3)">
        <svg xml:space="preserve" opacity="1" writing-mode="lr-tb" stop-color="rgb(0, 0, 0)" shape-rendering="auto" glyph-orientation-horizontal="0deg" color-profile="auto" lighting-color="rgb(255, 255, 255)" color="rgb(0, 0, 0)" font-weight="400" alignment-baseline="auto" font-style="normal" version="1.1" color-interpolation-filters="linearrgb" text-anchor="start" stroke-linecap="butt" color-interpolation="srgb" font-variant="normal" word-spacing="normal" fill-opacity="1" text-rendering="auto" clip-path="none" text-decoration="none" letter-spacing="normal" viewBox="0 0 40 48" glyph-orientation-vertical="auto" display="inline" font-size-adjust="none" overflow="visible" fill="rgb(0, 0, 0)" font-stretch="normal" stroke-dasharray="none" stroke-miterlimit="4" stop-opacity="1" color-rendering="auto" font-size="12" pointer-events="visiblepainted" mask="none" direction="ltr" baseline-shift="baseline" enable-background="new 0 0 40 48" fill-rule="nonzero" image-rendering="auto" stroke-dashoffset="0" width="40px" marker-end="none" clip="auto" cursor="auto" stroke="none" filter="none" visibility="visible" kerning="auto" stroke-width="1" font-family="&quot;Arial&quot;,&quot;Helvetica&quot;,sans-serif" flood-opacity="1" clip-rule="nonzero" src="none" height="48px" unicode-bidi="normal" stroke-linejoin="miter" stroke-opacity="1" flood-color="rgb(0, 0, 0)" dominant-baseline="auto" marker-start="none" x="0px" marker-mid="none" y="0px">
<defs>
<linearGradient x1="1032.0291" gradientUnits="userSpaceOnUse" x2="1186.0291" y1="334.4008" y2="374.4008" id="linearGradient1" spreadMethod="reflect">
              <stop stop-opacity="1" stop-color="rgb(232,238,247)" offset="0%"/>
              <stop stop-opacity="1" stop-color="rgb(183,201,227)" offset="100%"/>
            </linearGradient>
            <clipPath clipPathUnits="userSpaceOnUse" id="clipPath1">
              <path d="M0 0 L835 0 L835 664 L0 664 L0 0 Z"/>
            </clipPath>
            <clipPath clipPathUnits="userSpaceOnUse" id="clipPath2">
              <path d="M390 102 L1225 102 L1225 766 L390 766 L390 102 Z"/>
            </clipPath>
            <clipPath clipPathUnits="userSpaceOnUse" id="clipPath3">
              <path d="M-774.0643 -47.8424 L200.8227 -47.8424 L200.8227 727.397 L-774.0643 727.397 L-774.0643 -47.8424 Z"/>
            </clipPath>
            <clipPath clipPathUnits="userSpaceOnUse" id="clipPath4">
              <path d="M-803.1448 -452.8035 L171.7421 -452.8035 L171.7421 322.436 L-803.1448 322.436 L-803.1448 -452.8035 Z"/>
            </clipPath>
          </defs>
<linearGradient gradientTransform="matrix(1 0 0 1 -370.2002 -614.5742)" x1="370.2002" x2="409.4502" gradientUnits="userSpaceOnUse" y1="655.0938" y2="655.0938" id="svg1.SVGID_1_">
	<stop offset="0" style="stop-color:#4D4D4D"/>
	<stop offset="0.0558" style="stop-color:#5F5F5F"/>
	<stop offset="0.2103" style="stop-color:#8D8D8D"/>
	<stop offset="0.3479" style="stop-color:#AEAEAE"/>
	<stop offset="0.4623" style="stop-color:#C2C2C2"/>
	<stop offset="0.5394" style="stop-color:#C9C9C9"/>
	<stop offset="0.6247" style="stop-color:#C5C5C5"/>
	<stop offset="0.7072" style="stop-color:#BABABA"/>
	<stop offset="0.7885" style="stop-color:#A6A6A6"/>
	<stop offset="0.869" style="stop-color:#8B8B8B"/>
	<stop offset="0.9484" style="stop-color:#686868"/>
	<stop offset="1" style="stop-color:#4D4D4D"/>
</linearGradient>
<path fill="url(#svg1.SVGID_1_)" d="M19.625,37.613C8.787,37.613,0,35.738,0,33.425v10c0,2.313,8.787,4.188,19.625,4.188  c10.839,0,19.625-1.875,19.625-4.188v-10C39.25,35.738,30.464,37.613,19.625,37.613z"/>
<linearGradient gradientTransform="matrix(1 0 0 1 -370.2002 -614.5742)" x1="370.2002" x2="409.4502" gradientUnits="userSpaceOnUse" y1="649.0938" y2="649.0938" id="svg1.SVGID_2_">
	<stop offset="0" style="stop-color:#B3B3B3"/>
	<stop offset="0.0171" style="stop-color:#B6B6B6"/>
	<stop offset="0.235" style="stop-color:#D7D7D7"/>
	<stop offset="0.4168" style="stop-color:#EBEBEB"/>
	<stop offset="0.5394" style="stop-color:#F2F2F2"/>
	<stop offset="0.6579" style="stop-color:#EEEEEE"/>
	<stop offset="0.7724" style="stop-color:#E3E3E3"/>
	<stop offset="0.8853" style="stop-color:#CFCFCF"/>
	<stop offset="0.9965" style="stop-color:#B4B4B4"/>
	<stop offset="1" style="stop-color:#B3B3B3"/>
</linearGradient>
<path fill="url(#svg1.SVGID_2_)" d="M19.625,37.613c10.839,0,19.625-1.875,19.625-4.188l-1.229-2c0,2.168-8.235,3.927-18.396,3.927  c-9.481,0-17.396-1.959-18.396-3.927l-1.229,2C0,35.738,8.787,37.613,19.625,37.613z"/>
<linearGradient gradientTransform="matrix(1 0 0 1 -370.2002 -614.5742)" x1="371.4297" x2="408.2217" gradientUnits="userSpaceOnUse" y1="646" y2="646" id="svg1.SVGID_3_">
	<stop offset="0" style="stop-color:#C9C9C9"/>
	<stop offset="1" style="stop-color:#808080"/>
</linearGradient>
<ellipse rx="18.396" fill="url(#svg1.SVGID_3_)" ry="3.926" cx="19.625" cy="31.425"/>
<linearGradient gradientTransform="matrix(1 0 0 1 -370.2002 -614.5742)" x1="370.2002" x2="409.4502" gradientUnits="userSpaceOnUse" y1="641.0938" y2="641.0938" id="svg1.SVGID_4_">
	<stop offset="0" style="stop-color:#4D4D4D"/>
	<stop offset="0.0558" style="stop-color:#5F5F5F"/>
	<stop offset="0.2103" style="stop-color:#8D8D8D"/>
	<stop offset="0.3479" style="stop-color:#AEAEAE"/>
	<stop offset="0.4623" style="stop-color:#C2C2C2"/>
	<stop offset="0.5394" style="stop-color:#C9C9C9"/>
	<stop offset="0.6247" style="stop-color:#C5C5C5"/>
	<stop offset="0.7072" style="stop-color:#BABABA"/>
	<stop offset="0.7885" style="stop-color:#A6A6A6"/>
	<stop offset="0.869" style="stop-color:#8B8B8B"/>
	<stop offset="0.9484" style="stop-color:#686868"/>
	<stop offset="1" style="stop-color:#4D4D4D"/>
</linearGradient>
<path fill="url(#svg1.SVGID_4_)" d="M19.625,23.613C8.787,23.613,0,21.738,0,19.425v10c0,2.313,8.787,4.188,19.625,4.188  c10.839,0,19.625-1.875,19.625-4.188v-10C39.25,21.738,30.464,23.613,19.625,23.613z"/>
<linearGradient gradientTransform="matrix(1 0 0 1 -370.2002 -614.5742)" x1="370.2002" x2="409.4502" gradientUnits="userSpaceOnUse" y1="635.0938" y2="635.0938" id="svg1.SVGID_5_">
	<stop offset="0" style="stop-color:#B3B3B3"/>
	<stop offset="0.0171" style="stop-color:#B6B6B6"/>
	<stop offset="0.235" style="stop-color:#D7D7D7"/>
	<stop offset="0.4168" style="stop-color:#EBEBEB"/>
	<stop offset="0.5394" style="stop-color:#F2F2F2"/>
	<stop offset="0.6579" style="stop-color:#EEEEEE"/>
	<stop offset="0.7724" style="stop-color:#E3E3E3"/>
	<stop offset="0.8853" style="stop-color:#CFCFCF"/>
	<stop offset="0.9965" style="stop-color:#B4B4B4"/>
	<stop offset="1" style="stop-color:#B3B3B3"/>
</linearGradient>
<path fill="url(#svg1.SVGID_5_)" d="M19.625,23.613c10.839,0,19.625-1.875,19.625-4.188l-1.229-2c0,2.168-8.235,3.926-18.396,3.926  c-9.481,0-17.396-1.959-18.396-3.926l-1.229,2C0,21.738,8.787,23.613,19.625,23.613z"/>
<linearGradient gradientTransform="matrix(1 0 0 1 -370.2002 -614.5742)" x1="371.4297" x2="408.2217" gradientUnits="userSpaceOnUse" y1="632" y2="632" id="svg1.SVGID_6_">
	<stop offset="0" style="stop-color:#C9C9C9"/>
	<stop offset="1" style="stop-color:#808080"/>
</linearGradient>
<ellipse rx="18.396" fill="url(#svg1.SVGID_6_)" ry="3.926" cx="19.625" cy="17.426"/>
<linearGradient gradientTransform="matrix(1 0 0 1 -370.2002 -614.5742)" x1="370.2002" x2="409.4502" gradientUnits="userSpaceOnUse" y1="627.5938" y2="627.5938" id="svg1.SVGID_7_">
	<stop offset="0" style="stop-color:#4D4D4D"/>
	<stop offset="0.0558" style="stop-color:#5F5F5F"/>
	<stop offset="0.2103" style="stop-color:#8D8D8D"/>
	<stop offset="0.3479" style="stop-color:#AEAEAE"/>
	<stop offset="0.4623" style="stop-color:#C2C2C2"/>
	<stop offset="0.5394" style="stop-color:#C9C9C9"/>
	<stop offset="0.6247" style="stop-color:#C5C5C5"/>
	<stop offset="0.7072" style="stop-color:#BABABA"/>
	<stop offset="0.7885" style="stop-color:#A6A6A6"/>
	<stop offset="0.869" style="stop-color:#8B8B8B"/>
	<stop offset="0.9484" style="stop-color:#686868"/>
	<stop offset="1" style="stop-color:#4D4D4D"/>
</linearGradient>
<path fill="url(#svg1.SVGID_7_)" d="M19.625,10.113C8.787,10.113,0,8.238,0,5.925v10c0,2.313,8.787,4.188,19.625,4.188  c10.839,0,19.625-1.875,19.625-4.188v-10C39.25,8.238,30.464,10.113,19.625,10.113z"/>
<linearGradient gradientTransform="matrix(1 0 0 1 -370.2002 -614.5742)" x1="370.2002" x2="409.4502" gradientUnits="userSpaceOnUse" y1="621.5938" y2="621.5938" id="svg1.SVGID_8_">
	<stop offset="0" style="stop-color:#B3B3B3"/>
	<stop offset="0.0171" style="stop-color:#B6B6B6"/>
	<stop offset="0.235" style="stop-color:#D7D7D7"/>
	<stop offset="0.4168" style="stop-color:#EBEBEB"/>
	<stop offset="0.5394" style="stop-color:#F2F2F2"/>
	<stop offset="0.6579" style="stop-color:#EEEEEE"/>
	<stop offset="0.7724" style="stop-color:#E3E3E3"/>
	<stop offset="0.8853" style="stop-color:#CFCFCF"/>
	<stop offset="0.9965" style="stop-color:#B4B4B4"/>
	<stop offset="1" style="stop-color:#B3B3B3"/>
</linearGradient>
<path fill="url(#svg1.SVGID_8_)" d="M19.625,10.113c10.839,0,19.625-1.875,19.625-4.188l-1.229-2c0,2.168-8.235,3.926-18.396,3.926  c-9.481,0-17.396-1.959-18.396-3.926L0,5.925C0,8.238,8.787,10.113,19.625,10.113z"/>
<linearGradient gradientTransform="matrix(1 0 0 1 -370.2002 -614.5742)" x1="371.4297" x2="408.2217" gradientUnits="userSpaceOnUse" y1="618.5" y2="618.5" id="svg1.SVGID_9_">
	<stop offset="0" style="stop-color:#C9C9C9"/>
	<stop offset="1" style="stop-color:#808080"/>
</linearGradient>
<ellipse rx="18.396" fill="url(#svg1.SVGID_9_)" ry="3.926" cx="19.625" cy="3.926"/>
<path fill="#FFFFFF" d="M31.291,46.792c0,0-4.313,0.578-7.249,0.694  C20.917,47.613,15,47.613,15,47.613l-2.443-10.279l-0.119-2.283l-1.231-1.842L9.789,23.024l-0.082-0.119L9.3,20.715l-1.45-1.44  L5.329,8.793c0,0,5.296,0.882,7.234,1.07s8.375,0.25,8.375,0.25l3,9.875l-0.25,1.313l1.063,2.168l2.312,9.644l-0.375,1.875  l1.627,2.193L31.291,46.792z" enable-background="new    " opacity="0.24"/>
</svg>
      </g>
    </g>
    <g text-rendering="geometricPrecision" stroke-miterlimit="1.45" shape-rendering="geometricPrecision" font-family="sans-serif" transform="matrix(1,0,0,1,-390,-102)" stroke-linecap="butt">
      <text x="1041.1735" xml:space="preserve" y="200.8972" clip-path="url(#clipPath2)" stroke="none">Database</text>
    </g>
    <g fill="rgb(245,245,245)" text-rendering="geometricPrecision" shape-rendering="geometricPrecision" transform="matrix(1,0,0,1,-390,-102)" stroke="rgb(245,245,245)">
      <rect x="642.245" y="117.8747" clip-path="url(#clipPath2)" width="359.784" rx="4" ry="4" height="285.461" stroke="none"/>
      <rect x="642.245" y="117.8747" clip-path="url(#clipPath2)" fill="rgb(235,235,235)" width="359.784" height="21.4609" stroke="none"/>
    </g>
    <g font-size="15px" stroke-linecap="butt" transform="matrix(1,0,0,1,-390,-102)" text-rendering="geometricPrecision" font-family="sans-serif" shape-rendering="geometricPrecision" stroke-miterlimit="1.45">
      <text x="916.218" xml:space="preserve" y="133.798" clip-path="url(#clipPath2)" stroke="none">Application</text>
      <rect x="642.245" y="117.8747" clip-path="url(#clipPath2)" fill="none" width="359.784" stroke-dasharray="6,2" rx="4" ry="4" height="285.461"/>
    </g>
    <g fill="rgb(204,255,255)" text-rendering="geometricPrecision" shape-rendering="geometricPrecision" transform="matrix(1,0,0,1,-390,-102)" stroke="rgb(204,255,255)">
      <rect x="767.256" width="88.368" height="30" y="148.368" clip-path="url(#clipPath2)" stroke="none"/>
    </g>
    <g text-rendering="geometricPrecision" stroke-miterlimit="1.45" shape-rendering="geometricPrecision" transform="matrix(1,0,0,1,-390,-102)" stroke-linecap="butt">
      <rect fill="none" x="767.256" width="88.368" height="30" y="148.368" clip-path="url(#clipPath2)"/>
      <text x="790.2994" xml:space="preserve" y="167.5223" clip-path="url(#clipPath2)" font-family="sans-serif" stroke="none">Models</text>
    </g>
    <g fill="silver" text-rendering="geometricPrecision" shape-rendering="geometricPrecision" transform="matrix(1,0,0,1,-390,-102)" stroke="silver">
      <rect x="773.4" width="76.08" height="39.0112" y="208.368" clip-path="url(#clipPath2)" stroke="none"/>
    </g>
    <g text-rendering="geometricPrecision" stroke-miterlimit="1.45" shape-rendering="geometricPrecision" transform="matrix(1,0,0,1,-390,-102)" stroke-linecap="butt">
      <rect fill="none" x="773.4" width="76.08" height="39.0112" y="208.368" clip-path="url(#clipPath2)"/>
      <text x="801.9478" xml:space="preserve" y="232.0279" clip-path="url(#clipPath2)" font-family="sans-serif" stroke="none">API</text>
    </g>
    <g fill="rgb(204,255,204)" text-rendering="geometricPrecision" shape-rendering="geometricPrecision" transform="matrix(1,0,0,1,-390,-102)" stroke="rgb(204,255,204)">
      <rect x="667.32" width="76.08" height="32.0216" y="277.3792" clip-path="url(#clipPath2)" stroke="none"/>
    </g>
    <g text-rendering="geometricPrecision" stroke-miterlimit="1.45" shape-rendering="geometricPrecision" transform="matrix(1,0,0,1,-390,-102)" stroke-linecap="butt">
      <rect fill="none" x="667.32" width="76.08" height="32.0216" y="277.3792" clip-path="url(#clipPath2)"/>
      <text x="693.4567" xml:space="preserve" y="297.5443" clip-path="url(#clipPath2)" font-family="sans-serif" stroke="none">URL</text>
    </g>
    <g fill="rgb(255,255,153)" text-rendering="geometricPrecision" shape-rendering="geometricPrecision" transform="matrix(1,0,0,1,-390,-102)" stroke="rgb(255,255,153)">
      <rect x="742.2456" width="142" height="30" y="339.4008" clip-path="url(#clipPath2)" stroke="none"/>
    </g>
    <g text-rendering="geometricPrecision" stroke-miterlimit="1.45" shape-rendering="geometricPrecision" transform="matrix(1,0,0,1,-390,-102)" stroke-linecap="butt">
      <rect fill="none" x="742.2456" width="142" height="30" y="339.4008" clip-path="url(#clipPath2)"/>
      <text x="781.6665" xml:space="preserve" y="358.5551" clip-path="url(#clipPath2)" font-family="sans-serif" stroke="none">Rack layer</text>
    </g>
    <g fill="rgb(255,204,0)" text-rendering="geometricPrecision" shape-rendering="geometricPrecision" transform="matrix(1,0,0,1,-390,-102)" stroke="rgb(255,204,0)">
      <rect x="895.9372" width="68.4793" height="40.781" y="202.3716" clip-path="url(#clipPath2)" stroke="none"/>
    </g>
    <g text-rendering="geometricPrecision" stroke-miterlimit="1.45" shape-rendering="geometricPrecision" transform="matrix(1,0,0,1,-390,-102)" stroke-linecap="butt">
      <rect fill="none" x="895.9372" width="68.4793" height="40.781" y="202.3716" clip-path="url(#clipPath2)"/>
      <text x="911.3858" xml:space="preserve" y="219.932" clip-path="url(#clipPath2)" font-family="sans-serif" stroke="none">Image</text>
      <text x="909.7422" xml:space="preserve" y="233.9008" clip-path="url(#clipPath2)" font-family="sans-serif" stroke="none">upload</text>
    </g>
    <g fill="url(#linearGradient1)" text-rendering="geometricPrecision" shape-rendering="geometricPrecision" transform="matrix(1,0,0,1,-390,-102)" stroke="url(#linearGradient1)">
      <path d="M1037.0291 334.4008 L1181.0291 334.4008 Q1191.0291 354.4008 1181.0291 374.4008 L1037.0291 374.4008 Q1027.0291 354.4008 1037.0291 334.4008 Z" stroke="none" clip-path="url(#clipPath2)"/>
    </g>
    <g text-rendering="geometricPrecision" stroke-miterlimit="1.45" shape-rendering="geometricPrecision" transform="matrix(1,0,0,1,-390,-102)" stroke-linecap="butt">
      <path fill="none" d="M1037.0291 334.4008 L1181.0291 334.4008 Q1191.0291 354.4008 1181.0291 374.4008 L1037.0291 374.4008 Q1027.0291 354.4008 1037.0291 334.4008 Z" clip-path="url(#clipPath2)"/>
      <path fill="none" d="M1181.0291 334.4008 Q1171.0291 354.4008 1181.0291 374.4008" clip-path="url(#clipPath2)"/>
      <text x="1045.5984" xml:space="preserve" y="358.5551" clip-path="url(#clipPath2)" font-family="sans-serif" stroke="none">Authenticated tunnel</text>
    </g>
    <g text-rendering="geometricPrecision" stroke-miterlimit="1.45" stroke-dasharray="6,2" shape-rendering="geometricPrecision" transform="matrix(1,0,0,1,-390,-102)" stroke-linecap="butt">
      <path fill="none" d="M859.624 163.368 L979.7116 163.368 L979.7116 163.5316 L1049.0391 163.5316" clip-path="url(#clipPath2)"/>
      <path d="M855.624 163.368 L863.624 169.368 L860.624 163.368 L863.624 157.368 Z" clip-path="url(#clipPath2)" stroke="none"/>
      <path d="M1053.0391 163.5316 L1045.0391 157.5316 L1048.0391 163.5316 L1045.0391 169.5316 Z" clip-path="url(#clipPath2)" stroke="none"/>
      <path fill="none" stroke-dasharray="none" d="M811.44 204.368 L811.44 182.368" clip-path="url(#clipPath2)"/>
      <path stroke-dasharray="none" d="M811.44 208.368 L817.44 200.368 L811.44 203.368 L805.44 200.368 Z" clip-path="url(#clipPath2)" stroke="none"/>
      <path stroke-dasharray="none" d="M811.44 178.368 L805.44 186.368 L811.44 183.368 L817.44 186.368 Z" clip-path="url(#clipPath2)" stroke="none"/>
    </g>
    <g text-rendering="geometricPrecision" stroke-miterlimit="1.45" shape-rendering="geometricPrecision" transform="matrix(1,0,0,1,-390,-102)" stroke-linecap="butt">
      <path fill="none" d="M763.4 220.3736 L766.4 226.3736 L703.86 226.3736 L703.86 227.8736 L703.86 277.3792 L706.86 277.3792 L706.86 229.3736 L766.4 229.3736 L763.4 235.3736 L773.4 227.8736 L763.4 220.3736 Z" clip-path="url(#clipPath2)"/>
    </g>
    <g text-rendering="geometricPrecision" stroke-miterlimit="1.45" shape-rendering="geometricPrecision" transform="matrix(1,0,0,1,-390,-102)" stroke-linecap="butt">
      <path fill="none" d="M809.94 247.3792 L809.94 332.4351 L803.94 329.4351 L811.44 339.4351 L818.94 329.4351 L812.94 332.4351 L812.94 247.3792 Z" clip-path="url(#clipPath2)"/>
    </g>
    <g text-rendering="geometricPrecision" stroke-miterlimit="1.45" shape-rendering="geometricPrecision" transform="matrix(1,0,0,1,-390,-102)" stroke-linecap="butt">
      <path fill="none" d="M742.2456 354.4008 L705.36 354.4008 L705.36 313.4008" clip-path="url(#clipPath2)"/>
      <path d="M705.36 309.4008 L699.36 317.4008 L705.36 314.4008 L711.36 317.4008 Z" clip-path="url(#clipPath2)" stroke="none"/>
      <path fill="none" d="M849.4915 222.7621 L891.9372 222.7621" clip-path="url(#clipPath2)"/>
      <path d="M895.9372 222.7621 L887.9372 216.7621 L890.9372 222.7621 L887.9372 228.7621 Z" clip-path="url(#clipPath2)" stroke="none"/>
      <path fill="none" d="M1028.0142 354.4008 L888.2456 354.4008" clip-path="url(#clipPath2)"/>
      <path d="M1032.0142 354.4008 L1024.0142 348.4008 L1027.0142 354.4008 L1024.0142 360.4008 Z" clip-path="url(#clipPath2)" stroke="none"/>
      <path d="M884.2456 354.4008 L892.2456 360.4008 L889.2456 354.4008 L892.2456 348.4008 Z" clip-path="url(#clipPath2)" stroke="none"/>
    </g>
    <g fill="rgb(245,245,245)" text-rendering="geometricPrecision" shape-rendering="geometricPrecision" transform="matrix(1,0,0,1,-390,-102)" stroke="rgb(245,245,245)">
      <rect x="405.5643" y="297.3357" clip-path="url(#clipPath2)" width="199.6129" rx="4" ry="4" height="94.672" stroke="none"/>
      <rect x="405.5643" y="297.3357" clip-path="url(#clipPath2)" fill="rgb(235,235,235)" width="199.6129" height="21.4609" stroke="none"/>
    </g>
    <g font-size="15px" stroke-linecap="butt" transform="matrix(1,0,0,1,-390,-102)" text-rendering="geometricPrecision" font-family="sans-serif" shape-rendering="geometricPrecision" stroke-miterlimit="1.45">
      <text x="522.1127" xml:space="preserve" y="313.259" clip-path="url(#clipPath2)" stroke="none">Webserver</text>
      <rect x="405.5643" y="297.3357" clip-path="url(#clipPath2)" fill="none" width="199.6129" stroke-dasharray="6,2" rx="4" ry="4" height="94.672"/>
    </g>
    <g fill="rgb(255,255,153)" text-rendering="geometricPrecision" shape-rendering="geometricPrecision" transform="matrix(1,0,0,1,-390,-102)" stroke="rgb(255,255,153)">
      <rect x="439.1938" width="128.4" height="30" y="332.6733" clip-path="url(#clipPath2)" stroke="none"/>
    </g>
    <g text-rendering="geometricPrecision" stroke-miterlimit="1.45" shape-rendering="geometricPrecision" transform="matrix(1,0,0,1,-390,-102)" stroke-linecap="butt">
      <rect fill="none" x="439.1938" width="128.4" height="30" y="332.6733" clip-path="url(#clipPath2)"/>
      <text x="469.1692" xml:space="preserve" y="351.8275" clip-path="url(#clipPath2)" font-family="sans-serif" stroke="none">HTTP Proxy</text>
    </g>
    <g text-rendering="geometricPrecision" shape-rendering="geometricPrecision" transform="matrix(0.8565,0,0,0.8565,687.9012,387.8305)">
      <g clip-path="url(#clipPath4)">
        <svg xml:space="preserve" opacity="1" writing-mode="lr-tb" stop-color="rgb(0, 0, 0)" shape-rendering="auto" glyph-orientation-horizontal="0deg" color-profile="auto" lighting-color="rgb(255, 255, 255)" color="rgb(0, 0, 0)" font-weight="400" alignment-baseline="auto" font-style="normal" version="1.1" color-interpolation-filters="linearrgb" text-anchor="start" stroke-linecap="butt" color-interpolation="srgb" font-variant="normal" word-spacing="normal" fill-opacity="1" text-rendering="auto" clip-path="none" text-decoration="none" letter-spacing="normal" viewBox="0 0 40 48" glyph-orientation-vertical="auto" display="inline" font-size-adjust="none" overflow="visible" fill="rgb(0, 0, 0)" font-stretch="normal" stroke-dasharray="none" stroke-miterlimit="4" stop-opacity="1" color-rendering="auto" font-size="12" pointer-events="visiblepainted" mask="none" direction="ltr" baseline-shift="baseline" enable-background="new 0 0 40 48" fill-rule="nonzero" image-rendering="auto" stroke-dashoffset="0" width="40px" marker-end="none" clip="auto" cursor="auto" stroke="none" filter="none" visibility="visible" kerning="auto" stroke-width="1" font-family="&quot;Arial&quot;,&quot;Helvetica&quot;,sans-serif" flood-opacity="1" clip-rule="nonzero" src="none" height="48px" unicode-bidi="normal" stroke-linejoin="miter" stroke-opacity="1" flood-color="rgb(0, 0, 0)" dominant-baseline="auto" marker-start="none" x="0px" marker-mid="none" y="0px">
<defs>
</defs>
<linearGradient gradientTransform="matrix(1 0 0 1 -370.2002 -614.5742)" x1="370.2002" x2="409.4502" gradientUnits="userSpaceOnUse" y1="655.0938" y2="655.0938" id="svg2.SVGID_1_">
	<stop offset="0" style="stop-color:#4D4D4D"/>
	<stop offset="0.0558" style="stop-color:#5F5F5F"/>
	<stop offset="0.2103" style="stop-color:#8D8D8D"/>
	<stop offset="0.3479" style="stop-color:#AEAEAE"/>
	<stop offset="0.4623" style="stop-color:#C2C2C2"/>
	<stop offset="0.5394" style="stop-color:#C9C9C9"/>
	<stop offset="0.6247" style="stop-color:#C5C5C5"/>
	<stop offset="0.7072" style="stop-color:#BABABA"/>
	<stop offset="0.7885" style="stop-color:#A6A6A6"/>
	<stop offset="0.869" style="stop-color:#8B8B8B"/>
	<stop offset="0.9484" style="stop-color:#686868"/>
	<stop offset="1" style="stop-color:#4D4D4D"/>
</linearGradient>
<path fill="url(#svg2.SVGID_1_)" d="M19.625,37.613C8.787,37.613,0,35.738,0,33.425v10c0,2.313,8.787,4.188,19.625,4.188  c10.839,0,19.625-1.875,19.625-4.188v-10C39.25,35.738,30.464,37.613,19.625,37.613z"/>
<linearGradient gradientTransform="matrix(1 0 0 1 -370.2002 -614.5742)" x1="370.2002" x2="409.4502" gradientUnits="userSpaceOnUse" y1="649.0938" y2="649.0938" id="svg2.SVGID_2_">
	<stop offset="0" style="stop-color:#B3B3B3"/>
	<stop offset="0.0171" style="stop-color:#B6B6B6"/>
	<stop offset="0.235" style="stop-color:#D7D7D7"/>
	<stop offset="0.4168" style="stop-color:#EBEBEB"/>
	<stop offset="0.5394" style="stop-color:#F2F2F2"/>
	<stop offset="0.6579" style="stop-color:#EEEEEE"/>
	<stop offset="0.7724" style="stop-color:#E3E3E3"/>
	<stop offset="0.8853" style="stop-color:#CFCFCF"/>
	<stop offset="0.9965" style="stop-color:#B4B4B4"/>
	<stop offset="1" style="stop-color:#B3B3B3"/>
</linearGradient>
<path fill="url(#svg2.SVGID_2_)" d="M19.625,37.613c10.839,0,19.625-1.875,19.625-4.188l-1.229-2c0,2.168-8.235,3.927-18.396,3.927  c-9.481,0-17.396-1.959-18.396-3.927l-1.229,2C0,35.738,8.787,37.613,19.625,37.613z"/>
<linearGradient gradientTransform="matrix(1 0 0 1 -370.2002 -614.5742)" x1="371.4297" x2="408.2217" gradientUnits="userSpaceOnUse" y1="646" y2="646" id="svg2.SVGID_3_">
	<stop offset="0" style="stop-color:#C9C9C9"/>
	<stop offset="1" style="stop-color:#808080"/>
</linearGradient>
<ellipse rx="18.396" fill="url(#svg2.SVGID_3_)" ry="3.926" cx="19.625" cy="31.425"/>
<linearGradient gradientTransform="matrix(1 0 0 1 -370.2002 -614.5742)" x1="370.2002" x2="409.4502" gradientUnits="userSpaceOnUse" y1="641.0938" y2="641.0938" id="svg2.SVGID_4_">
	<stop offset="0" style="stop-color:#4D4D4D"/>
	<stop offset="0.0558" style="stop-color:#5F5F5F"/>
	<stop offset="0.2103" style="stop-color:#8D8D8D"/>
	<stop offset="0.3479" style="stop-color:#AEAEAE"/>
	<stop offset="0.4623" style="stop-color:#C2C2C2"/>
	<stop offset="0.5394" style="stop-color:#C9C9C9"/>
	<stop offset="0.6247" style="stop-color:#C5C5C5"/>
	<stop offset="0.7072" style="stop-color:#BABABA"/>
	<stop offset="0.7885" style="stop-color:#A6A6A6"/>
	<stop offset="0.869" style="stop-color:#8B8B8B"/>
	<stop offset="0.9484" style="stop-color:#686868"/>
	<stop offset="1" style="stop-color:#4D4D4D"/>
</linearGradient>
<path fill="url(#svg2.SVGID_4_)" d="M19.625,23.613C8.787,23.613,0,21.738,0,19.425v10c0,2.313,8.787,4.188,19.625,4.188  c10.839,0,19.625-1.875,19.625-4.188v-10C39.25,21.738,30.464,23.613,19.625,23.613z"/>
<linearGradient gradientTransform="matrix(1 0 0 1 -370.2002 -614.5742)" x1="370.2002" x2="409.4502" gradientUnits="userSpaceOnUse" y1="635.0938" y2="635.0938" id="svg2.SVGID_5_">
	<stop offset="0" style="stop-color:#B3B3B3"/>
	<stop offset="0.0171" style="stop-color:#B6B6B6"/>
	<stop offset="0.235" style="stop-color:#D7D7D7"/>
	<stop offset="0.4168" style="stop-color:#EBEBEB"/>
	<stop offset="0.5394" style="stop-color:#F2F2F2"/>
	<stop offset="0.6579" style="stop-color:#EEEEEE"/>
	<stop offset="0.7724" style="stop-color:#E3E3E3"/>
	<stop offset="0.8853" style="stop-color:#CFCFCF"/>
	<stop offset="0.9965" style="stop-color:#B4B4B4"/>
	<stop offset="1" style="stop-color:#B3B3B3"/>
</linearGradient>
<path fill="url(#svg2.SVGID_5_)" d="M19.625,23.613c10.839,0,19.625-1.875,19.625-4.188l-1.229-2c0,2.168-8.235,3.926-18.396,3.926  c-9.481,0-17.396-1.959-18.396-3.926l-1.229,2C0,21.738,8.787,23.613,19.625,23.613z"/>
<linearGradient gradientTransform="matrix(1 0 0 1 -370.2002 -614.5742)" x1="371.4297" x2="408.2217" gradientUnits="userSpaceOnUse" y1="632" y2="632" id="svg2.SVGID_6_">
	<stop offset="0" style="stop-color:#C9C9C9"/>
	<stop offset="1" style="stop-color:#808080"/>
</linearGradient>
<ellipse rx="18.396" fill="url(#svg2.SVGID_6_)" ry="3.926" cx="19.625" cy="17.426"/>
<linearGradient gradientTransform="matrix(1 0 0 1 -370.2002 -614.5742)" x1="370.2002" x2="409.4502" gradientUnits="userSpaceOnUse" y1="627.5938" y2="627.5938" id="svg2.SVGID_7_">
	<stop offset="0" style="stop-color:#4D4D4D"/>
	<stop offset="0.0558" style="stop-color:#5F5F5F"/>
	<stop offset="0.2103" style="stop-color:#8D8D8D"/>
	<stop offset="0.3479" style="stop-color:#AEAEAE"/>
	<stop offset="0.4623" style="stop-color:#C2C2C2"/>
	<stop offset="0.5394" style="stop-color:#C9C9C9"/>
	<stop offset="0.6247" style="stop-color:#C5C5C5"/>
	<stop offset="0.7072" style="stop-color:#BABABA"/>
	<stop offset="0.7885" style="stop-color:#A6A6A6"/>
	<stop offset="0.869" style="stop-color:#8B8B8B"/>
	<stop offset="0.9484" style="stop-color:#686868"/>
	<stop offset="1" style="stop-color:#4D4D4D"/>
</linearGradient>
<path fill="url(#svg2.SVGID_7_)" d="M19.625,10.113C8.787,10.113,0,8.238,0,5.925v10c0,2.313,8.787,4.188,19.625,4.188  c10.839,0,19.625-1.875,19.625-4.188v-10C39.25,8.238,30.464,10.113,19.625,10.113z"/>
<linearGradient gradientTransform="matrix(1 0 0 1 -370.2002 -614.5742)" x1="370.2002" x2="409.4502" gradientUnits="userSpaceOnUse" y1="621.5938" y2="621.5938" id="svg2.SVGID_8_">
	<stop offset="0" style="stop-color:#B3B3B3"/>
	<stop offset="0.0171" style="stop-color:#B6B6B6"/>
	<stop offset="0.235" style="stop-color:#D7D7D7"/>
	<stop offset="0.4168" style="stop-color:#EBEBEB"/>
	<stop offset="0.5394" style="stop-color:#F2F2F2"/>
	<stop offset="0.6579" style="stop-color:#EEEEEE"/>
	<stop offset="0.7724" style="stop-color:#E3E3E3"/>
	<stop offset="0.8853" style="stop-color:#CFCFCF"/>
	<stop offset="0.9965" style="stop-color:#B4B4B4"/>
	<stop offset="1" style="stop-color:#B3B3B3"/>
</linearGradient>
<path fill="url(#svg2.SVGID_8_)" d="M19.625,10.113c10.839,0,19.625-1.875,19.625-4.188l-1.229-2c0,2.168-8.235,3.926-18.396,3.926  c-9.481,0-17.396-1.959-18.396-3.926L0,5.925C0,8.238,8.787,10.113,19.625,10.113z"/>
<linearGradient gradientTransform="matrix(1 0 0 1 -370.2002 -614.5742)" x1="371.4297" x2="408.2217" gradientUnits="userSpaceOnUse" y1="618.5" y2="618.5" id="svg2.SVGID_9_">
	<stop offset="0" style="stop-color:#C9C9C9"/>
	<stop offset="1" style="stop-color:#808080"/>
</linearGradient>
<ellipse rx="18.396" fill="url(#svg2.SVGID_9_)" ry="3.926" cx="19.625" cy="3.926"/>
<path fill="#FFFFFF" d="M31.291,46.792c0,0-4.313,0.578-7.249,0.694  C20.917,47.613,15,47.613,15,47.613l-2.443-10.279l-0.119-2.283l-1.231-1.842L9.789,23.024l-0.082-0.119L9.3,20.715l-1.45-1.44  L5.329,8.793c0,0,5.296,0.882,7.234,1.07s8.375,0.25,8.375,0.25l3,9.875l-0.25,1.313l1.063,2.168l2.312,9.644l-0.375,1.875  l1.627,2.193L31.291,46.792z" enable-background="new    " opacity="0.24"/>
</svg>
      </g>
    </g>
    <g text-rendering="geometricPrecision" stroke-miterlimit="1.45" shape-rendering="geometricPrecision" font-family="sans-serif" transform="matrix(1,0,0,1,-390,-102)" stroke-linecap="butt">
      <text x="1066.0813" xml:space="preserve" y="547.7502" clip-path="url(#clipPath2)" stroke="none">Database</text>
      <path fill="none" d="M813.2456 373.4008 L813.2456 419.037 L503.3938 419.037 L503.3938 366.6732" clip-path="url(#clipPath2)"/>
      <path d="M813.2456 369.4008 L807.2456 377.4008 L813.2456 374.4008 L819.2456 377.4008 Z" clip-path="url(#clipPath2)" stroke="none"/>
      <path d="M503.3938 362.6732 L497.3938 370.6732 L503.3938 367.6732 L509.3938 370.6732 Z" clip-path="url(#clipPath2)" stroke="none"/>
    </g>
    <g fill="rgb(245,245,245)" text-rendering="geometricPrecision" shape-rendering="geometricPrecision" transform="matrix(1,0,0,1,-390,-102)" stroke="rgb(245,245,245)">
      <rect x="642.245" y="461.4224" clip-path="url(#clipPath2)" width="352.584" rx="4" ry="4" height="288.7663" stroke="none"/>
      <rect x="642.245" y="461.4224" clip-path="url(#clipPath2)" fill="rgb(235,235,235)" width="352.584" height="21.4609" stroke="none"/>
    </g>
    <g font-size="15px" stroke-linecap="butt" transform="matrix(1,0,0,1,-390,-102)" text-rendering="geometricPrecision" font-family="sans-serif" shape-rendering="geometricPrecision" stroke-miterlimit="1.45">
      <text x="899.848" xml:space="preserve" y="477.3457" clip-path="url(#clipPath2)" stroke="none">Login server</text>
      <rect x="642.245" y="461.4224" clip-path="url(#clipPath2)" fill="none" width="352.584" stroke-dasharray="6,2" rx="4" ry="4" height="288.7663"/>
    </g>
    <g fill="rgb(204,255,255)" text-rendering="geometricPrecision" shape-rendering="geometricPrecision" transform="matrix(1,0,0,1,-390,-102)" stroke="rgb(204,255,255)">
      <rect x="756.856" width="88.368" height="30" y="489.8305" clip-path="url(#clipPath2)" stroke="none"/>
    </g>
    <g text-rendering="geometricPrecision" stroke-miterlimit="1.45" shape-rendering="geometricPrecision" transform="matrix(1,0,0,1,-390,-102)" stroke-linecap="butt">
      <rect fill="none" x="756.856" width="88.368" height="30" y="489.8305" clip-path="url(#clipPath2)"/>
      <text x="779.8994" xml:space="preserve" y="508.9848" clip-path="url(#clipPath2)" font-family="sans-serif" stroke="none">Models</text>
    </g>
    <g fill="silver" text-rendering="geometricPrecision" shape-rendering="geometricPrecision" transform="matrix(1,0,0,1,-390,-102)" stroke="silver">
      <rect x="763" width="76.08" height="39.0112" y="549.8305" clip-path="url(#clipPath2)" stroke="none"/>
    </g>
    <g text-rendering="geometricPrecision" stroke-miterlimit="1.45" shape-rendering="geometricPrecision" transform="matrix(1,0,0,1,-390,-102)" stroke-linecap="butt">
      <rect fill="none" x="763" width="76.08" height="39.0112" y="549.8305" clip-path="url(#clipPath2)"/>
      <text x="791.5478" xml:space="preserve" y="573.4904" clip-path="url(#clipPath2)" font-family="sans-serif" stroke="none">API</text>
    </g>
    <g fill="rgb(204,255,204)" text-rendering="geometricPrecision" shape-rendering="geometricPrecision" transform="matrix(1,0,0,1,-390,-102)" stroke="rgb(204,255,204)">
      <rect x="869.08" width="76.08" height="32.0216" y="624.2322" clip-path="url(#clipPath2)" stroke="none"/>
    </g>
    <g text-rendering="geometricPrecision" stroke-miterlimit="1.45" shape-rendering="geometricPrecision" transform="matrix(1,0,0,1,-390,-102)" stroke-linecap="butt">
      <rect fill="none" x="869.08" width="76.08" height="32.0216" y="624.2322" clip-path="url(#clipPath2)"/>
      <text x="895.2167" xml:space="preserve" y="644.3973" clip-path="url(#clipPath2)" font-family="sans-serif" stroke="none">URL</text>
    </g>
    <g fill="rgb(255,255,153)" text-rendering="geometricPrecision" shape-rendering="geometricPrecision" transform="matrix(1,0,0,1,-390,-102)" stroke="rgb(255,255,153)">
      <rect x="730.04" width="142" height="30" y="686.2538" clip-path="url(#clipPath2)" stroke="none"/>
    </g>
    <g text-rendering="geometricPrecision" stroke-miterlimit="1.45" shape-rendering="geometricPrecision" transform="matrix(1,0,0,1,-390,-102)" stroke-linecap="butt">
      <rect fill="none" x="730.04" width="142" height="30" y="686.2538" clip-path="url(#clipPath2)"/>
      <text x="769.4609" xml:space="preserve" y="705.4081" clip-path="url(#clipPath2)" font-family="sans-serif" stroke="none">Rack layer</text>
    </g>
    <g fill="rgb(255,204,204)" text-rendering="geometricPrecision" shape-rendering="geometricPrecision" transform="matrix(1,0,0,1,-390,-102)" stroke="rgb(255,204,204)">
      <circle r="30.7056" clip-path="url(#clipPath2)" cx="1069.8024" cy="278.6952" stroke="none"/>
    </g>
    <g text-rendering="geometricPrecision" stroke-miterlimit="1.45" shape-rendering="geometricPrecision" transform="matrix(1,0,0,1,-390,-102)" stroke-linecap="butt">
      <circle fill="none" r="30.7056" clip-path="url(#clipPath2)" cx="1069.8024" cy="278.6952"/>
      <text x="1052.6461" xml:space="preserve" y="275.8651" clip-path="url(#clipPath2)" font-family="sans-serif" stroke="none">Static</text>
      <text x="1057.5387" xml:space="preserve" y="289.8339" clip-path="url(#clipPath2)" font-family="sans-serif" stroke="none">files</text>
      <path fill="none" stroke-dasharray="6,2" d="M849.224 504.8305 L1073.9296 504.8305" clip-path="url(#clipPath2)"/>
      <path stroke-dasharray="6,2" d="M845.224 504.8305 L853.224 510.8305 L850.224 504.8305 L853.224 498.8305 Z" clip-path="url(#clipPath2)" stroke="none"/>
      <path stroke-dasharray="6,2" d="M1077.9296 504.8305 L1069.9296 498.8305 L1072.9296 504.8305 L1069.9296 510.8305 Z" clip-path="url(#clipPath2)" stroke="none"/>
      <path fill="none" d="M801.04 545.8305 L801.04 537.0833 L801.04 537.0833 L801.04 523.8305" clip-path="url(#clipPath2)"/>
      <path d="M801.04 549.8305 L807.04 541.8305 L801.04 544.8305 L795.04 541.8305 Z" clip-path="url(#clipPath2)" stroke="none"/>
      <path d="M801.04 519.8305 L795.04 527.8305 L801.04 524.8305 L807.04 527.8305 Z" clip-path="url(#clipPath2)" stroke="none"/>
    </g>
    <g text-rendering="geometricPrecision" stroke-miterlimit="1.45" shape-rendering="geometricPrecision" transform="matrix(1,0,0,1,-390,-102)" stroke-linecap="butt">
      <path fill="none" d="M849.08 561.8361 L839.08 569.3361 L849.08 576.8361 L846.08 570.8361 L905.62 570.8361 L905.62 624.2322 L908.62 624.2322 L908.62 569.3361 L908.62 567.8361 L846.08 567.8361 L849.08 561.8361 Z" clip-path="url(#clipPath2)"/>
    </g>
    <g text-rendering="geometricPrecision" stroke-miterlimit="1.45" shape-rendering="geometricPrecision" transform="matrix(1,0,0,1,-390,-102)" stroke-linecap="butt">
      <path fill="none" d="M799.54 588.8417 L799.54 679.2614 L793.54 676.2614 L801.04 686.2614 L808.54 676.2614 L802.54 679.2614 L802.54 588.8417 Z" clip-path="url(#clipPath2)"/>
    </g>
    <g text-rendering="geometricPrecision" stroke-miterlimit="1.45" shape-rendering="geometricPrecision" transform="matrix(1,0,0,1,-390,-102)" stroke-linecap="butt">
      <path fill="none" d="M876.04 701.2538 L1209.1053 701.2538 L1209.1053 354.4008 L1189.9919 354.4008" clip-path="url(#clipPath2)"/>
      <path d="M872.04 701.2538 L880.04 707.2538 L877.04 701.2538 L880.04 695.2538 Z" clip-path="url(#clipPath2)" stroke="none"/>
      <path d="M1185.9919 354.4008 L1193.9919 360.4008 L1190.9919 354.4008 L1193.9919 348.4008 Z" clip-path="url(#clipPath2)" stroke="none"/>
      <path fill="none" d="M854.08 686.2692 L854.08 670.7484 L907.12 670.7484 L907.12 660.2538" clip-path="url(#clipPath2)"/>
      <path d="M907.12 656.2538 L901.12 664.2538 L907.12 661.2538 L913.12 664.2538 Z" clip-path="url(#clipPath2)" stroke="none"/>
      <path fill="none" stroke-dasharray="4,3,0,3" d="M968.4164 222.7621 L1069.8024 222.7621 L1069.8024 232.9896" clip-path="url(#clipPath2)" stroke-linecap="round"/>
    </g>
    <g stroke-linecap="round" transform="matrix(1,0,0,1,-390,-102)" fill-opacity="0" fill="rgb(0,0,0)" text-rendering="geometricPrecision" shape-rendering="geometricPrecision" stroke-dasharray="4,3,0,3" stroke="rgb(0,0,0)" stroke-opacity="0" stroke-miterlimit="1.45">
      <path d="M960.4164 222.7621 C960.4164 220.553 962.2073 218.7621 964.4164 218.7621 C966.6256 218.7621 968.4164 220.553 968.4164 222.7621 C968.4164 224.9713 966.6256 226.7621 964.4164 226.7621 C962.2073 226.7621 960.4164 224.9713 960.4164 222.7621 Z" stroke="none" clip-path="url(#clipPath2)"/>
    </g>
    <g text-rendering="geometricPrecision" stroke-miterlimit="1.45" shape-rendering="geometricPrecision" transform="matrix(1,0,0,1,-390,-102)" stroke-linecap="butt">
      <path fill="none" d="M960.4164 222.7621 C960.4164 220.553 962.2073 218.7621 964.4164 218.7621 C966.6256 218.7621 968.4164 220.553 968.4164 222.7621 C968.4164 224.9713 966.6256 226.7621 964.4164 226.7621 C962.2073 226.7621 960.4164 224.9713 960.4164 222.7621 Z" clip-path="url(#clipPath2)"/>
    </g>
    <g stroke-linecap="round" transform="matrix(1,0,0,1,-390,-102)" fill="white" text-rendering="geometricPrecision" shape-rendering="geometricPrecision" stroke-dasharray="4,3,0,3" stroke="white" stroke-miterlimit="1.45">
      <path d="M1069.8024 247.9896 L1075.8024 231.9896 L1063.8024 231.9896 Z" stroke="none" clip-path="url(#clipPath2)"/>
    </g>
    <g text-rendering="geometricPrecision" stroke-miterlimit="1.45" shape-rendering="geometricPrecision" transform="matrix(1,0,0,1,-390,-102)" stroke-linecap="butt">
      <path fill="none" d="M1069.8024 247.9896 L1075.8024 231.9896 L1063.8024 231.9896 Z" clip-path="url(#clipPath2)"/>
    </g>
  </g>
</svg>
