<?xml version="1.0" encoding="UTF-8"?><svg xmlns="http://www.w3.org/2000/svg" xmlns:xlink="http://www.w3.org/1999/xlink" fill-opacity="1" color-rendering="auto" color-interpolation="auto" text-rendering="auto" stroke="black" stroke-linecap="square" width="284" stroke-miterlimit="10" shape-rendering="auto" stroke-opacity="1" fill="black" stroke-dasharray="none" font-weight="normal" stroke-width="1" height="418" font-family="'Dialog'" font-style="normal" stroke-linejoin="miter" font-size="12px" stroke-dashoffset="0" image-rendering="auto">
  <!--Generated by ySVG 2.5-->
  <defs id="genericDefs"/>
  <g>
    <defs id="defs1">
      <clipPath clipPathUnits="userSpaceOnUse" id="clipPath1">
        <path d="M0 0 L284 0 L284 418 L0 418 L0 0 Z"/>
      </clipPath>
      <clipPath clipPathUnits="userSpaceOnUse" id="clipPath2">
        <path d="M1303 628 L1587 628 L1587 1046 L1303 1046 L1303 628 Z"/>
      </clipPath>
    </defs>
    <g fill="white" text-rendering="geometricPrecision" shape-rendering="geometricPrecision" transform="matrix(1,0,0,1,-1303,-628)" stroke="white">
      <rect x="1318.8741" y="643.2711" clip-path="url(#clipPath2)" width="252.6341" rx="4" ry="4" height="387.0504" stroke="none"/>
    </g>
    <g fill="rgb(235,235,235)" text-rendering="geometricPrecision" shape-rendering="geometricPrecision" transform="matrix(1,0,0,1,-1303,-628)" stroke="rgb(235,235,235)">
      <rect x="1318.8741" width="252.6341" height="21.4609" y="643.2711" clip-path="url(#clipPath2)" stroke="none"/>
    </g>
    <g font-size="15px" stroke-linecap="butt" transform="matrix(1,0,0,1,-1303,-628)" text-rendering="geometricPrecision" font-family="sans-serif" shape-rendering="geometricPrecision" stroke-miterlimit="1.45">
      <text x="1514.1444" xml:space="preserve" y="659.1945" clip-path="url(#clipPath2)" stroke="none">Legend</text>
      <rect x="1318.8741" y="643.2711" clip-path="url(#clipPath2)" fill="none" width="252.6341" stroke-dasharray="6,2" rx="4" ry="4" height="387.0504"/>
    </g>
    <g fill="rgb(204,255,255)" text-rendering="geometricPrecision" shape-rendering="geometricPrecision" transform="matrix(1,0,0,1,-1303,-628)" stroke="rgb(204,255,255)">
      <rect x="1348.672" width="48.8158" height="18" y="677.4649" clip-path="url(#clipPath2)" stroke="none"/>
    </g>
    <g text-rendering="geometricPrecision" stroke-miterlimit="1.45" shape-rendering="geometricPrecision" transform="matrix(1,0,0,1,-1303,-628)" stroke-linecap="butt">
      <rect fill="none" x="1348.672" width="48.8158" height="18" y="677.4649" clip-path="url(#clipPath2)"/>
      <text x="1409.8279" xml:space="preserve" y="690.6192" clip-path="url(#clipPath2)" font-family="sans-serif" stroke="none">Database model</text>
    </g>
    <g fill="silver" text-rendering="geometricPrecision" shape-rendering="geometricPrecision" transform="matrix(1,0,0,1,-1303,-628)" stroke="silver">
      <rect x="1348.672" width="48.8158" height="18" y="702.5186" clip-path="url(#clipPath2)" stroke="none"/>
    </g>
    <g text-rendering="geometricPrecision" stroke-miterlimit="1.45" shape-rendering="geometricPrecision" transform="matrix(1,0,0,1,-1303,-628)" stroke-linecap="butt">
      <rect fill="none" x="1348.672" width="48.8158" height="18" y="702.5186" clip-path="url(#clipPath2)"/>
      <text x="1409.8279" xml:space="preserve" y="715.6729" clip-path="url(#clipPath2)" font-family="sans-serif" stroke="none">API</text>
    </g>
    <g fill="rgb(255,204,204)" text-rendering="geometricPrecision" shape-rendering="geometricPrecision" transform="matrix(1,0,0,1,-1303,-628)" stroke="rgb(255,204,204)">
      <rect x="1348.672" width="48.8158" height="18" y="752.7336" clip-path="url(#clipPath2)" stroke="none"/>
    </g>
    <g text-rendering="geometricPrecision" stroke-miterlimit="1.45" shape-rendering="geometricPrecision" transform="matrix(1,0,0,1,-1303,-628)" stroke-linecap="butt">
      <rect fill="none" x="1348.672" width="48.8158" height="18" y="752.7336" clip-path="url(#clipPath2)"/>
      <text x="1409.8279" xml:space="preserve" y="765.8879" clip-path="url(#clipPath2)" font-family="sans-serif" stroke="none">Filesystem</text>
    </g>
    <g fill="rgb(255,255,153)" text-rendering="geometricPrecision" shape-rendering="geometricPrecision" transform="matrix(1,0,0,1,-1303,-628)" stroke="rgb(255,255,153)">
      <rect x="1348.672" width="48.8158" height="18" y="777.8411" clip-path="url(#clipPath2)" stroke="none"/>
    </g>
    <g text-rendering="geometricPrecision" stroke-miterlimit="1.45" shape-rendering="geometricPrecision" transform="matrix(1,0,0,1,-1303,-628)" stroke-linecap="butt">
      <rect fill="none" x="1348.672" width="48.8158" height="18" y="777.8411" clip-path="url(#clipPath2)"/>
      <text x="1409.8279" xml:space="preserve" y="790.9954" clip-path="url(#clipPath2)" font-family="sans-serif" stroke="none">Connector module</text>
    </g>
    <g fill="rgb(204,204,0)" text-rendering="geometricPrecision" shape-rendering="geometricPrecision" transform="matrix(1,0,0,1,-1303,-628)" stroke="rgb(204,204,0)">
      <rect x="1348.672" width="48.8158" height="18" y="727.6261" clip-path="url(#clipPath2)" stroke="none"/>
    </g>
    <g text-rendering="geometricPrecision" stroke-miterlimit="1.45" shape-rendering="geometricPrecision" transform="matrix(1,0,0,1,-1303,-628)" stroke-linecap="butt">
      <rect fill="none" x="1348.672" width="48.8158" height="18" y="727.6261" clip-path="url(#clipPath2)"/>
      <text x="1409.8279" xml:space="preserve" y="740.7804" clip-path="url(#clipPath2)" font-family="sans-serif" stroke="none">View</text>
    </g>
    <g fill="rgb(255,204,0)" text-rendering="geometricPrecision" shape-rendering="geometricPrecision" transform="matrix(1,0,0,1,-1303,-628)" stroke="rgb(255,204,0)">
      <path d="M1348.672 810.8411 L1353.5536 801.8411 L1392.6063 801.8411 L1397.4879 810.8411 L1392.6063 819.8411 L1353.5536 819.8411 Z" fill-rule="evenodd" clip-path="url(#clipPath2)" stroke="none"/>
    </g>
    <g text-rendering="geometricPrecision" stroke-miterlimit="1.45" shape-rendering="geometricPrecision" transform="matrix(1,0,0,1,-1303,-628)" stroke-linecap="butt">
      <path fill="none" d="M1348.672 810.8411 L1353.5536 801.8411 L1392.6063 801.8411 L1397.4879 810.8411 L1392.6063 819.8411 L1353.5536 819.8411 Z" fill-rule="evenodd" clip-path="url(#clipPath2)"/>
      <text x="1410.1899" xml:space="preserve" y="814.9954" clip-path="url(#clipPath2)" font-family="sans-serif" stroke="none">HTTP Resource</text>
    </g>
    <g fill="rgb(255,204,0)" text-rendering="geometricPrecision" shape-rendering="geometricPrecision" transform="matrix(1,0,0,1,-1303,-628)" stroke="rgb(255,204,0)">
      <rect x="1396.4879" width="1" height="1" y="990.1215" clip-path="url(#clipPath2)" stroke="none"/>
    </g>
    <g stroke-linecap="butt" transform="matrix(1,0,0,1,-1303,-628)" fill="white" text-rendering="geometricPrecision" shape-rendering="geometricPrecision" stroke="white" stroke-miterlimit="1.45">
      <rect fill="none" x="1396.4879" width="1" height="1" y="990.1215" clip-path="url(#clipPath2)"/>
    </g>
    <g fill="rgb(255,204,0)" text-rendering="geometricPrecision" shape-rendering="geometricPrecision" transform="matrix(1,0,0,1,-1303,-628)" stroke="rgb(255,204,0)">
      <rect x="1348.672" width="1" height="1" y="990.1215" clip-path="url(#clipPath2)" stroke="none"/>
    </g>
    <g stroke-linecap="butt" transform="matrix(1,0,0,1,-1303,-628)" fill="white" text-rendering="geometricPrecision" shape-rendering="geometricPrecision" stroke="white" stroke-miterlimit="1.45">
      <rect fill="none" x="1348.672" width="1" height="1" y="990.1215" clip-path="url(#clipPath2)"/>
    </g>
    <g fill="rgb(255,204,0)" text-rendering="geometricPrecision" shape-rendering="geometricPrecision" transform="matrix(1,0,0,1,-1303,-628)" stroke="rgb(255,204,0)">
      <rect x="1396.4879" width="1" height="1" y="969.6215" clip-path="url(#clipPath2)" stroke="none"/>
    </g>
    <g stroke-linecap="butt" transform="matrix(1,0,0,1,-1303,-628)" fill="white" text-rendering="geometricPrecision" shape-rendering="geometricPrecision" stroke="white" stroke-miterlimit="1.45">
      <rect fill="none" x="1396.4879" width="1" height="1" y="969.6215" clip-path="url(#clipPath2)"/>
    </g>
    <g fill="rgb(255,204,0)" text-rendering="geometricPrecision" shape-rendering="geometricPrecision" transform="matrix(1,0,0,1,-1303,-628)" stroke="rgb(255,204,0)">
      <rect x="1348.672" width="1" height="1" y="969.6215" clip-path="url(#clipPath2)" stroke="none"/>
    </g>
    <g stroke-linecap="butt" transform="matrix(1,0,0,1,-1303,-628)" fill="white" text-rendering="geometricPrecision" shape-rendering="geometricPrecision" stroke="white" stroke-miterlimit="1.45">
      <rect fill="none" x="1348.672" width="1" height="1" y="969.6215" clip-path="url(#clipPath2)"/>
    </g>
    <g fill="rgb(255,204,0)" text-rendering="geometricPrecision" shape-rendering="geometricPrecision" transform="matrix(1,0,0,1,-1303,-628)" stroke="rgb(255,204,0)">
      <rect x="1398.2879" width="1" height="1" y="949.1215" clip-path="url(#clipPath2)" stroke="none"/>
    </g>
    <g stroke-linecap="butt" transform="matrix(1,0,0,1,-1303,-628)" fill="white" text-rendering="geometricPrecision" shape-rendering="geometricPrecision" stroke="white" stroke-miterlimit="1.45">
      <rect fill="none" x="1398.2879" width="1" height="1" y="949.1215" clip-path="url(#clipPath2)"/>
    </g>
    <g fill="rgb(255,204,0)" text-rendering="geometricPrecision" shape-rendering="geometricPrecision" transform="matrix(1,0,0,1,-1303,-628)" stroke="rgb(255,204,0)">
      <rect x="1347.672" width="1" height="1" y="949.1215" clip-path="url(#clipPath2)" stroke="none"/>
    </g>
    <g stroke-linecap="butt" transform="matrix(1,0,0,1,-1303,-628)" fill="white" text-rendering="geometricPrecision" shape-rendering="geometricPrecision" stroke="white" stroke-miterlimit="1.45">
      <rect fill="none" x="1347.672" width="1" height="1" y="949.1215" clip-path="url(#clipPath2)"/>
    </g>
    <g fill="rgb(255,204,0)" text-rendering="geometricPrecision" shape-rendering="geometricPrecision" transform="matrix(1,0,0,1,-1303,-628)" stroke="rgb(255,204,0)">
      <rect x="1398.2879" width="1" height="1" y="928.6215" clip-path="url(#clipPath2)" stroke="none"/>
    </g>
    <g stroke-linecap="butt" transform="matrix(1,0,0,1,-1303,-628)" fill="white" text-rendering="geometricPrecision" shape-rendering="geometricPrecision" stroke="white" stroke-miterlimit="1.45">
      <rect fill="none" x="1398.2879" width="1" height="1" y="928.6215" clip-path="url(#clipPath2)"/>
    </g>
    <g fill="rgb(255,204,0)" text-rendering="geometricPrecision" shape-rendering="geometricPrecision" transform="matrix(1,0,0,1,-1303,-628)" stroke="rgb(255,204,0)">
      <rect x="1347.672" width="1" height="1" y="928.6215" clip-path="url(#clipPath2)" stroke="none"/>
    </g>
    <g stroke-linecap="butt" transform="matrix(1,0,0,1,-1303,-628)" fill="white" text-rendering="geometricPrecision" shape-rendering="geometricPrecision" stroke="white" stroke-miterlimit="1.45">
      <rect fill="none" x="1347.672" width="1" height="1" y="928.6215" clip-path="url(#clipPath2)"/>
    </g>
    <g fill="rgb(255,204,0)" text-rendering="geometricPrecision" shape-rendering="geometricPrecision" transform="matrix(1,0,0,1,-1303,-628)" stroke="rgb(255,204,0)">
      <rect x="1398.2879" width="1" height="1" y="908.1215" clip-path="url(#clipPath2)" stroke="none"/>
    </g>
    <g stroke-linecap="butt" transform="matrix(1,0,0,1,-1303,-628)" fill="white" text-rendering="geometricPrecision" shape-rendering="geometricPrecision" stroke="white" stroke-miterlimit="1.45">
      <rect fill="none" x="1398.2879" width="1" height="1" y="908.1215" clip-path="url(#clipPath2)"/>
    </g>
    <g fill="rgb(255,204,0)" text-rendering="geometricPrecision" shape-rendering="geometricPrecision" transform="matrix(1,0,0,1,-1303,-628)" stroke="rgb(255,204,0)">
      <rect x="1346.672" width="1" height="1" y="908.1215" clip-path="url(#clipPath2)" stroke="none"/>
    </g>
    <g stroke-linecap="butt" transform="matrix(1,0,0,1,-1303,-628)" fill="white" text-rendering="geometricPrecision" shape-rendering="geometricPrecision" stroke="white" stroke-miterlimit="1.45">
      <rect fill="none" x="1346.672" width="1" height="1" y="908.1215" clip-path="url(#clipPath2)"/>
    </g>
    <g fill="rgb(204,255,204)" text-rendering="geometricPrecision" shape-rendering="geometricPrecision" transform="matrix(1,0,0,1,-1303,-628)" stroke="rgb(204,255,204)">
      <rect x="1348.672" width="48.8158" height="18" y="876.056" clip-path="url(#clipPath2)" stroke="none"/>
    </g>
    <g text-rendering="geometricPrecision" stroke-miterlimit="1.45" shape-rendering="geometricPrecision" transform="matrix(1,0,0,1,-1303,-628)" stroke-linecap="butt">
      <rect fill="none" x="1348.672" width="48.8158" height="18" y="876.056" clip-path="url(#clipPath2)"/>
      <text x="1409.8279" xml:space="preserve" y="889.2103" clip-path="url(#clipPath2)" font-family="sans-serif" stroke="none">Dispatcher</text>
    </g>
    <g fill="rgb(153,204,0)" text-rendering="geometricPrecision" shape-rendering="geometricPrecision" transform="matrix(1,0,0,1,-1303,-628)" stroke="rgb(153,204,0)">
      <rect x="1348.672" width="48.8158" height="18" y="850.9486" clip-path="url(#clipPath2)" stroke="none"/>
    </g>
    <g text-rendering="geometricPrecision" stroke-miterlimit="1.45" shape-rendering="geometricPrecision" transform="matrix(1,0,0,1,-1303,-628)" stroke-linecap="butt">
      <rect fill="none" x="1348.672" width="48.8158" height="18" y="850.9486" clip-path="url(#clipPath2)"/>
      <text x="1409.8279" xml:space="preserve" y="864.1028" clip-path="url(#clipPath2)" font-family="sans-serif" stroke="none">UI</text>
    </g>
    <g fill="rgb(255,204,0)" text-rendering="geometricPrecision" shape-rendering="geometricPrecision" transform="matrix(1,0,0,1,-1303,-628)" stroke="rgb(255,204,0)">
      <rect x="1348.672" width="48.8158" height="18" y="825.8411" clip-path="url(#clipPath2)" stroke="none"/>
    </g>
    <g text-rendering="geometricPrecision" stroke-miterlimit="1.45" shape-rendering="geometricPrecision" transform="matrix(1,0,0,1,-1303,-628)" stroke-linecap="butt">
      <rect fill="none" x="1348.672" width="48.8158" height="18" y="825.8411" clip-path="url(#clipPath2)"/>
      <text x="1409.8279" xml:space="preserve" y="838.9954" clip-path="url(#clipPath2)" font-family="sans-serif" stroke="none">HTTP Interface</text>
    </g>
    <g text-rendering="geometricPrecision" stroke-miterlimit="1.45" shape-rendering="geometricPrecision" transform="matrix(1,0,0,1,-1303,-628)" stroke-linecap="butt">
      <path fill="none" d="M1386.4879 983.1215 L1389.4879 989.1215 L1349.672 989.1215 L1349.672 992.1215 L1389.4879 992.1215 L1386.4879 998.1215 L1396.4879 990.6215 L1386.4879 983.1215 Z" clip-path="url(#clipPath2)"/>
      <text x="1409.5398" xml:space="preserve" y="993.9739" clip-path="url(#clipPath2)" font-family="sans-serif" stroke="none">Serialisation</text>
    </g>
    <g text-rendering="geometricPrecision" stroke-miterlimit="1.45" shape-rendering="geometricPrecision" transform="matrix(1,0,0,1,-1303,-628)" stroke-linecap="butt">
      <path fill="none" d="M1349.672 970.1215 L1392.4879 970.1215" clip-path="url(#clipPath2)"/>
      <path d="M1396.4879 970.1215 L1388.4879 964.1215 L1391.4879 970.1215 L1388.4879 976.1215 Z" clip-path="url(#clipPath2)" stroke="none"/>
      <text x="1409.019" xml:space="preserve" y="974.1332" clip-path="url(#clipPath2)" font-family="sans-serif" stroke="none">Module connection</text>
      <path fill="none" d="M1348.672 949.6215 L1398.2878 949.6215" clip-path="url(#clipPath2)"/>
      <text x="1409.0656" xml:space="preserve" y="953.6332" clip-path="url(#clipPath2)" font-family="sans-serif" stroke="none">HTTP connection</text>
      <path fill="none" stroke-dasharray="4,3,0,3" d="M1352.672 929.1215 L1383.2878 929.1215" clip-path="url(#clipPath2)" stroke-linecap="round"/>
    </g>
    <g stroke-linecap="round" transform="matrix(1,0,0,1,-1303,-628)" fill-opacity="0" fill="rgb(0,0,0)" text-rendering="geometricPrecision" shape-rendering="geometricPrecision" stroke-dasharray="4,3,0,3" stroke="rgb(0,0,0)" stroke-opacity="0" stroke-miterlimit="1.45">
      <path d="M1344.672 929.1215 C1344.672 926.9124 1346.4629 925.1215 1348.672 925.1215 C1350.8811 925.1215 1352.672 926.9124 1352.672 929.1215 C1352.672 931.3307 1350.8811 933.1215 1348.672 933.1215 C1346.4629 933.1215 1344.672 931.3307 1344.672 929.1215 Z" stroke="none" clip-path="url(#clipPath2)"/>
    </g>
    <g text-rendering="geometricPrecision" stroke-miterlimit="1.45" shape-rendering="geometricPrecision" transform="matrix(1,0,0,1,-1303,-628)" stroke-linecap="butt">
      <path fill="none" d="M1344.672 929.1215 C1344.672 926.9124 1346.4629 925.1215 1348.672 925.1215 C1350.8811 925.1215 1352.672 926.9124 1352.672 929.1215 C1352.672 931.3307 1350.8811 933.1215 1348.672 933.1215 C1346.4629 933.1215 1344.672 931.3307 1344.672 929.1215 Z" clip-path="url(#clipPath2)"/>
    </g>
    <g stroke-linecap="round" transform="matrix(1,0,0,1,-1303,-628)" fill="white" text-rendering="geometricPrecision" shape-rendering="geometricPrecision" stroke-dasharray="4,3,0,3" stroke="white" stroke-miterlimit="1.45">
      <path d="M1398.2878 929.1215 L1382.2878 923.1215 L1382.2878 935.1215 Z" stroke="none" clip-path="url(#clipPath2)"/>
    </g>
    <g text-rendering="geometricPrecision" stroke-miterlimit="1.45" shape-rendering="geometricPrecision" transform="matrix(1,0,0,1,-1303,-628)" stroke-linecap="butt">
      <path fill="none" d="M1398.2878 929.1215 L1382.2878 923.1215 L1382.2878 935.1215 Z" clip-path="url(#clipPath2)"/>
      <text x="1409.4703" xml:space="preserve" y="933.1332" clip-path="url(#clipPath2)" font-family="sans-serif" stroke="none">Filesystem connection</text>
      <path fill="none" stroke-dasharray="6,2" d="M1347.672 908.6215 L1394.2878 908.6215" clip-path="url(#clipPath2)"/>
      <path stroke-dasharray="6,2" d="M1398.2878 908.6215 L1390.2878 902.6215 L1393.2878 908.6215 L1390.2878 914.6215 Z" clip-path="url(#clipPath2)" stroke="none"/>
      <text x="1409.4895" xml:space="preserve" y="913.6398" clip-path="url(#clipPath2)" font-family="sans-serif" stroke="none">Database connection</text>
    </g>
  </g>
</svg>
