<?xml version="1.0" encoding="UTF-8"?><svg xmlns="http://www.w3.org/2000/svg" xmlns:xlink="http://www.w3.org/1999/xlink" fill-opacity="1" color-rendering="auto" color-interpolation="auto" text-rendering="auto" stroke="black" stroke-linecap="square" width="472" stroke-miterlimit="10" shape-rendering="auto" stroke-opacity="1" fill="black" stroke-dasharray="none" font-weight="normal" stroke-width="1" height="359" font-family="'Dialog'" font-style="normal" stroke-linejoin="miter" font-size="12px" stroke-dashoffset="0" image-rendering="auto">
  <!--Generated by ySVG 2.5-->
  <defs id="genericDefs"/>
  <g>
    <defs id="defs1">
      <clipPath clipPathUnits="userSpaceOnUse" id="clipPath1">
        <path d="M0 0 L472 0 L472 359 L0 359 L0 0 Z"/>
      </clipPath>
      <clipPath clipPathUnits="userSpaceOnUse" id="clipPath2">
        <path d="M548 818 L1020 818 L1020 1177 L548 1177 L548 818 Z"/>
      </clipPath>
    </defs>
    <g fill="rgb(245,245,245)" text-rendering="geometricPrecision" shape-rendering="geometricPrecision" transform="matrix(1,0,0,1,-548,-818)" stroke="rgb(245,245,245)">
      <rect x="563.3413" y="833.656" clip-path="url(#clipPath2)" width="440.9177" rx="4" ry="4" height="327.4" stroke="none"/>
    </g>
    <g fill="rgb(235,235,235)" text-rendering="geometricPrecision" shape-rendering="geometricPrecision" transform="matrix(1,0,0,1,-548,-818)" stroke="rgb(235,235,235)">
      <rect x="563.3413" width="440.9177" height="21.4609" y="833.656" clip-path="url(#clipPath2)" stroke="none"/>
    </g>
    <g font-size="15px" stroke-linecap="butt" transform="matrix(1,0,0,1,-548,-818)" text-rendering="geometricPrecision" font-family="sans-serif" shape-rendering="geometricPrecision" stroke-miterlimit="1.45">
      <text x="941.1456" xml:space="preserve" y="849.5793" clip-path="url(#clipPath2)" stroke="none">Browser</text>
      <rect x="563.3413" y="833.656" clip-path="url(#clipPath2)" fill="none" width="440.9177" stroke-dasharray="6,2" rx="4" ry="4" height="327.4"/>
    </g>
    <g fill="rgb(255,204,0)" text-rendering="geometricPrecision" shape-rendering="geometricPrecision" transform="matrix(1,0,0,1,-548,-818)" stroke="rgb(255,204,0)">
      <rect x="749.0456" width="128.4" height="30" y="870.056" clip-path="url(#clipPath2)" stroke="none"/>
    </g>
    <g text-rendering="geometricPrecision" stroke-miterlimit="1.45" shape-rendering="geometricPrecision" transform="matrix(1,0,0,1,-548,-818)" stroke-linecap="butt">
      <rect fill="none" x="749.0456" width="128.4" height="30" y="870.056" clip-path="url(#clipPath2)"/>
      <text x="778.5083" xml:space="preserve" y="889.2103" clip-path="url(#clipPath2)" font-family="sans-serif" stroke="none">HTTP Client</text>
    </g>
    <g fill="rgb(153,204,0)" text-rendering="geometricPrecision" shape-rendering="geometricPrecision" transform="matrix(1,0,0,1,-548,-818)" stroke="rgb(153,204,0)">
      <rect x="748.3247" width="128.4" height="30" y="1100.55" clip-path="url(#clipPath2)" stroke="none"/>
    </g>
    <g text-rendering="geometricPrecision" stroke-miterlimit="1.45" shape-rendering="geometricPrecision" transform="matrix(1,0,0,1,-548,-818)" stroke-linecap="butt">
      <rect fill="none" x="748.3247" width="128.4" height="30" y="1100.55" clip-path="url(#clipPath2)"/>
      <text x="768.5237" xml:space="preserve" y="1119.7043" clip-path="url(#clipPath2)" font-family="sans-serif" stroke="none">Render engine</text>
    </g>
    <g fill="rgb(255,204,0)" text-rendering="geometricPrecision" shape-rendering="geometricPrecision" transform="matrix(1,0,0,1,-548,-818)" stroke="rgb(255,204,0)">
      <path d="M778.9943 1049.7565 L785.8444 1030.1483 L840.6465 1030.1483 L847.4966 1049.7565 L840.6465 1069.3645 L785.8444 1069.3645 Z" fill-rule="evenodd" clip-path="url(#clipPath2)" stroke="none"/>
    </g>
    <g text-rendering="geometricPrecision" stroke-miterlimit="1.45" shape-rendering="geometricPrecision" transform="matrix(1,0,0,1,-548,-818)" stroke-linecap="butt">
      <path fill="none" d="M778.9943 1049.7565 L785.8444 1030.1483 L840.6465 1030.1483 L847.4966 1049.7565 L840.6465 1069.3645 L785.8444 1069.3645 Z" fill-rule="evenodd" clip-path="url(#clipPath2)"/>
      <text x="781.7222" xml:space="preserve" y="1053.9103" clip-path="url(#clipPath2)" font-family="sans-serif" stroke="none">Templates</text>
    </g>
    <g fill="rgb(204,255,204)" text-rendering="geometricPrecision" shape-rendering="geometricPrecision" transform="matrix(1,0,0,1,-548,-818)" stroke="rgb(204,255,204)">
      <rect x="568.3413" width="151.44" height="30" y="1034.756" clip-path="url(#clipPath2)" stroke="none"/>
    </g>
    <g text-rendering="geometricPrecision" stroke-miterlimit="1.45" shape-rendering="geometricPrecision" transform="matrix(1,0,0,1,-548,-818)" stroke-linecap="butt">
      <rect fill="none" x="568.3413" width="151.44" height="30" y="1034.756" clip-path="url(#clipPath2)"/>
      <text x="580.3523" xml:space="preserve" y="1053.9103" clip-path="url(#clipPath2)" font-family="sans-serif" stroke="none">Component manager</text>
    </g>
    <g fill="rgb(255,204,0)" text-rendering="geometricPrecision" shape-rendering="geometricPrecision" transform="matrix(1,0,0,1,-548,-818)" stroke="rgb(255,204,0)">
      <path d="M922.0763 942.144 L928.9241 924.84 L983.7076 924.84 L990.5556 942.144 L983.7076 959.448 L928.9241 959.448 Z" fill-rule="evenodd" clip-path="url(#clipPath2)" stroke="none"/>
    </g>
    <g text-rendering="geometricPrecision" stroke-miterlimit="1.45" shape-rendering="geometricPrecision" transform="matrix(1,0,0,1,-548,-818)" stroke-linecap="butt">
      <path fill="none" d="M922.0763 942.144 L928.9241 924.84 L983.7076 924.84 L990.5556 942.144 L983.7076 959.448 L928.9241 959.448 Z" fill-rule="evenodd" clip-path="url(#clipPath2)"/>
      <text x="938.1198" xml:space="preserve" y="946.2983" clip-path="url(#clipPath2)" font-family="sans-serif" stroke="none">Styles</text>
    </g>
    <g fill="rgb(204,204,0)" text-rendering="geometricPrecision" shape-rendering="geometricPrecision" transform="matrix(1,0,0,1,-548,-818)" stroke="rgb(204,204,0)">
      <rect x="635.9265" width="113.84" height="34.608" y="924.84" clip-path="url(#clipPath2)" stroke="none"/>
    </g>
    <g text-rendering="geometricPrecision" stroke-miterlimit="1.45" shape-rendering="geometricPrecision" transform="matrix(1,0,0,1,-548,-818)" stroke-linecap="butt">
      <rect fill="none" x="635.9265" width="113.84" height="34.608" y="924.84" clip-path="url(#clipPath2)"/>
      <text x="654.7606" xml:space="preserve" y="946.2983" clip-path="url(#clipPath2)" font-family="sans-serif" stroke="none">View models</text>
      <path fill="none" d="M813.2456 900.056 L813.2456 1030.1299" clip-path="url(#clipPath2)"/>
      <path fill="none" d="M813.2456 1069.385 L813.2456 1096.5374" clip-path="url(#clipPath2)"/>
      <path d="M813.2456 1100.5374 L819.2456 1092.5374 L813.2456 1095.5374 L807.2456 1092.5374 Z" clip-path="url(#clipPath2)" stroke="none"/>
      <path fill="none" d="M748.3246 1115.55 L644.0613 1115.55 L644.0613 1068.756" clip-path="url(#clipPath2)"/>
      <path d="M644.0613 1064.756 L638.0613 1072.756 L644.0613 1069.756 L650.0613 1072.756 Z" clip-path="url(#clipPath2)" stroke="none"/>
      <path fill="none" d="M719.7812 1049.756 L778.9723 1049.756" clip-path="url(#clipPath2)"/>
      <path fill="none" d="M877.4456 885.056 L956.316 885.056 L956.316 924.8337" clip-path="url(#clipPath2)"/>
      <path fill="none" d="M956.316 959.4592 L956.316 1115.55 L880.7247 1115.55" clip-path="url(#clipPath2)"/>
      <path d="M876.7247 1115.55 L884.7247 1121.55 L881.7247 1115.55 L884.7247 1109.55 Z" clip-path="url(#clipPath2)" stroke="none"/>
      <path fill="none" d="M745.0456 885.056 L692.8466 885.056 L692.8466 920.84" clip-path="url(#clipPath2)"/>
      <path d="M749.0456 885.056 L741.0456 879.056 L744.0456 885.056 L741.0456 891.056 Z" clip-path="url(#clipPath2)" stroke="none"/>
      <path d="M692.8466 924.84 L698.8466 916.84 L692.8466 919.84 L686.8466 916.84 Z" clip-path="url(#clipPath2)" stroke="none"/>
      <path fill="none" d="M692.8466 959.4481 L692.8466 979.4481 L797.3265 979.4481 L797.3265 1026.1238" clip-path="url(#clipPath2)"/>
      <path d="M797.3265 1030.1238 L803.3265 1022.1238 L797.3265 1025.1238 L791.3265 1022.1238 Z" clip-path="url(#clipPath2)" stroke="none"/>
    </g>
  </g>
</svg>
